<?xml version="1.0" standalone="no"?>
<!DOCTYPE svg PUBLIC "-//W3C//DTD SVG 20010904//EN"
 "http://www.w3.org/TR/2001/REC-SVG-20010904/DTD/svg10.dtd">
<svg version="1.0" xmlns="http://www.w3.org/2000/svg"
 width="260.000000pt" height="260.000000pt" viewBox="0 0 260.000000 260.000000"
 preserveAspectRatio="xMidYMid meet">
<metadata>
Created by potrace 1.14, written by Peter Selinger 2001-2017
</metadata>
<g transform="translate(0.000000,260.000000) scale(0.100000,-0.100000)"
fill="#000000" stroke="none">
<path d="M1113 2183 c-24 -2 -43 -8 -43 -14 0 -5 -11 -9 -25 -9 -14 0 -25 -4
-25 -10 0 -5 -18 -13 -40 -16 -22 -4 -40 -10 -40 -14 0 -4 -11 -11 -25 -14
-14 -4 -25 -11 -25 -16 0 -6 -7 -10 -15 -10 -8 0 -15 -4 -15 -9 0 -5 -11 -12
-24 -15 -14 -3 -28 -15 -31 -26 -3 -11 -10 -20 -15 -20 -11 0 -70 -59 -70 -70
0 -5 -9 -12 -20 -15 -11 -3 -22 -16 -26 -29 -3 -12 -16 -30 -30 -40 -13 -11
-24 -27 -24 -37 0 -11 -4 -19 -9 -19 -5 0 -12 -13 -16 -30 -4 -16 -11 -30 -16
-30 -5 0 -9 -11 -9 -25 0 -14 -4 -25 -9 -25 -5 0 -12 -22 -16 -50 -4 -27 -11
-50 -16 -50 -5 0 -9 -22 -9 -50 0 -27 -4 -50 -10 -50 -6 0 -10 -38 -10 -95 0
-57 4 -95 10 -95 6 0 10 -22 10 -50 0 -27 4 -50 9 -50 5 0 12 -25 16 -55 3
-30 11 -55 16 -55 5 0 9 -7 9 -15 0 -8 4 -15 9 -15 5 0 12 -16 15 -35 4 -19
11 -35 15 -35 5 0 12 -11 15 -24 3 -14 15 -28 26 -31 11 -3 20 -13 20 -22 0
-17 163 -183 179 -183 6 0 11 -4 11 -10 0 -5 11 -12 25 -16 14 -3 25 -10 25
-15 0 -4 16 -11 35 -15 19 -3 35 -10 35 -15 0 -5 9 -9 19 -9 11 0 21 -4 23
-10 2 -5 31 -13 66 -16 34 -4 62 -11 62 -15 0 -5 50 -9 110 -9 61 0 110 4 110
9 0 4 28 11 63 15 34 3 64 11 65 16 2 6 12 10 23 10 10 0 19 4 19 9 0 5 16 12
35 15 19 4 35 11 35 15 0 5 11 12 25 15 14 4 25 11 25 16 0 6 5 10 11 10 6 0
28 18 50 40 22 22 46 40 54 40 8 0 17 10 20 23 4 13 17 31 31 41 13 11 24 27
24 37 0 10 9 21 20 24 11 3 23 17 26 31 3 13 10 24 15 24 4 0 11 16 15 35 3
19 10 35 15 35 5 0 9 7 9 15 0 8 4 15 9 15 5 0 13 25 16 55 4 30 11 55 16 55
5 0 9 18 9 40 0 22 5 40 10 40 6 0 10 45 10 115 0 70 -4 115 -10 115 -5 0 -10
18 -10 40 0 22 -4 40 -9 40 -4 0 -11 27 -15 60 -4 33 -11 60 -16 60 -6 0 -10
7 -10 15 0 8 -4 15 -9 15 -5 0 -12 14 -16 30 -4 17 -11 30 -16 30 -5 0 -9 8
-9 19 0 10 -11 26 -24 37 -14 10 -27 28 -30 40 -4 13 -15 26 -26 29 -11 3 -20
15 -20 26 0 10 -7 19 -15 19 -9 0 -18 7 -21 15 -3 8 -14 17 -24 20 -11 3 -22
15 -25 25 -3 10 -16 22 -28 26 -12 4 -29 15 -38 25 -8 10 -27 21 -42 24 -15 4
-27 11 -27 15 0 5 -18 11 -40 15 -22 4 -40 11 -40 16 0 5 -11 9 -24 9 -13 0
-26 5 -28 10 -3 11 -262 21 -335 13z m315 -92 c2 -6 15 -11 28 -11 13 0 24 -4
24 -9 0 -5 18 -11 40 -15 22 -3 40 -11 40 -16 0 -6 7 -10 15 -10 8 0 15 -4 15
-9 0 -5 10 -13 22 -17 28 -9 173 -154 182 -182 4 -12 12 -22 17 -22 5 0 9 -7
9 -15 0 -8 4 -15 10 -15 5 0 12 -11 16 -25 3 -14 10 -25 15 -25 5 0 9 -7 9
-15 0 -8 4 -15 9 -15 5 0 12 -21 16 -47 4 -27 12 -51 18 -55 17 -10 17 -376 0
-386 -6 -4 -14 -28 -18 -54 -4 -27 -11 -48 -16 -48 -5 0 -9 -7 -9 -15 0 -8 -4
-15 -9 -15 -5 0 -12 -12 -15 -26 -4 -14 -18 -37 -31 -50 -14 -14 -25 -29 -25
-34 0 -14 -150 -160 -164 -160 -6 0 -18 -9 -26 -20 -8 -10 -27 -22 -42 -25
-15 -4 -28 -11 -28 -16 0 -5 -11 -9 -25 -9 -14 0 -25 -4 -25 -9 0 -5 -25 -13
-55 -16 -30 -4 -55 -11 -55 -16 0 -5 -49 -9 -110 -9 -60 0 -110 4 -110 9 0 5
-25 12 -55 16 -30 3 -55 11 -55 16 0 5 -11 9 -25 9 -14 0 -25 4 -25 9 0 5 -13
12 -28 16 -15 3 -34 15 -42 25 -8 11 -20 20 -26 20 -17 0 -161 144 -169 169
-3 12 -11 21 -16 21 -5 0 -9 7 -9 15 0 8 -4 15 -10 15 -5 0 -10 9 -10 20 0 11
-7 23 -15 26 -8 4 -15 12 -15 20 0 8 -4 14 -9 14 -5 0 -12 21 -16 48 -4 26
-12 50 -18 54 -16 10 -17 366 -1 376 6 4 14 25 17 47 4 22 11 41 17 43 5 2 10
12 10 23 0 10 4 19 9 19 5 0 12 14 16 30 4 17 11 30 16 30 5 0 9 7 9 15 0 8 4
15 9 15 5 0 13 10 17 22 9 30 154 174 185 183 13 4 31 16 41 27 9 10 32 22 52
25 20 3 36 10 36 14 0 5 11 9 25 9 14 0 25 4 25 9 0 14 69 19 210 15 75 -2
126 -7 128 -13z"/>
<path d="M987 1923 c-4 -3 -7 -15 -7 -25 0 -10 -4 -18 -10 -18 -7 0 -10 -172
-10 -495 l0 -495 24 -6 c44 -11 81 -1 84 24 2 12 8 22 13 22 5 0 9 158 9 395
0 366 6 452 25 365 4 -16 10 -30 15 -30 4 0 11 -16 14 -35 4 -19 11 -35 16
-35 6 0 10 -7 10 -15 0 -8 4 -15 9 -15 5 0 13 -10 17 -22 3 -12 12 -28 20 -35
15 -15 84 -18 84 -3 0 6 5 10 11 10 10 0 18 6 51 37 21 19 38 42 38 49 0 4 14
20 30 36 17 15 30 35 30 43 0 8 5 15 10 15 6 0 10 -128 10 -365 0 -207 4 -365
9 -365 5 0 12 -11 15 -25 5 -21 12 -25 42 -25 67 0 64 -20 64 495 0 391 -2
469 -14 481 -9 8 -34 14 -61 14 -38 0 -52 -5 -76 -29 -16 -16 -29 -32 -29 -36
0 -4 -12 -20 -27 -35 -38 -40 -53 -58 -53 -65 0 -3 -17 -22 -37 -42 -30 -28
-39 -33 -41 -20 -2 10 -7 17 -12 17 -5 0 -11 14 -15 30 -4 17 -11 30 -16 30
-5 0 -9 9 -9 20 0 11 -4 20 -9 20 -5 0 -12 12 -16 27 -3 15 -14 34 -24 42 -10
9 -21 26 -25 37 -5 17 -17 23 -59 28 -67 8 -92 8 -100 -1z"/>
</g>
</svg>
